<svg width="18" height="18" viewBox="0 0 18 18" fill="none" xmlns="http://www.w3.org/2000/svg">
<path d="M1 17H17" stroke="black" stroke-linecap="round" stroke-linejoin="round"/>
<path d="M2.39136 3.08698H15.6087V17H2.39136V3.08698Z" stroke="black" stroke-linecap="round" stroke-linejoin="round"/>
<path d="M1 3.08698H17" stroke="black" stroke-linecap="round" stroke-linejoin="round"/>
<path d="M14.913 3.08696V1.69565C14.913 1.51115 14.8397 1.33421 14.7092 1.20375C14.5788 1.07329 14.4018 1 14.2173 1H3.78257C3.59807 1 3.42113 1.07329 3.29067 1.20375C3.16021 1.33421 3.08691 1.51115 3.08691 1.69565V3.08696" stroke="black" stroke-linecap="round" stroke-linejoin="round"/>
<path d="M7.95654 17V14.5652C7.95654 14.2885 8.06648 14.023 8.26217 13.8274C8.45786 13.6317 8.72327 13.5217 9.00002 13.5217C9.27677 13.5217 9.54218 13.6317 9.73787 13.8274C9.93356 14.023 10.0435 14.2885 10.0435 14.5652V17" stroke="black" stroke-linecap="round" stroke-linejoin="round"/>
<path d="M4.47827 14.2174H6.56523" stroke="black" stroke-linecap="round" stroke-linejoin="round"/>
<path d="M11.4348 14.2174H13.5218" stroke="black" stroke-linecap="round" stroke-linejoin="round"/>
<path d="M4.47827 11.4348H7.26088" stroke="black" stroke-linecap="round" stroke-linejoin="round"/>
<path d="M10.739 11.4348H13.5216" stroke="black" stroke-linecap="round" stroke-linejoin="round"/>
<path d="M4.47827 8.65216H7.26088" stroke="black" stroke-linecap="round" stroke-linejoin="round"/>
<path d="M10.739 8.65216H13.5216" stroke="black" stroke-linecap="round" stroke-linejoin="round"/>
<path d="M4.47827 5.86957H7.26088" stroke="black" stroke-linecap="round" stroke-linejoin="round"/>
<path d="M10.739 5.86957H13.5216" stroke="black" stroke-linecap="round" stroke-linejoin="round"/>
</svg>
