<svg width="122" height="30" viewBox="0 0 122 30" fill="none" xmlns="http://www.w3.org/2000/svg">
<g clip-path="url(#clip0_5083_12782)">
<path d="M39.9417 6.57544H42.6692L47.4079 18.3575H47.5838L52.3225 6.57544H55.05V21.7384H52.9132V10.7632H52.775L48.3883 21.7128H46.616L42.2293 10.7632H42.091V21.7384H39.9542V6.57544H39.9417Z" fill="white"/>
<path d="M61.3103 21.9558C60.2167 21.9558 59.2614 21.7125 58.4696 21.2387C57.6777 20.752 57.0618 20.0733 56.6344 19.2024C56.2071 18.3316 55.9934 17.2942 55.9934 16.116C55.9934 14.9506 56.2071 13.9261 56.6344 13.0425C57.0618 12.1588 57.6651 11.4673 58.4319 10.9678C59.1986 10.4684 60.1036 10.225 61.1469 10.225C61.7753 10.225 62.3912 10.3275 62.982 10.5452C63.5727 10.7629 64.1007 11.0959 64.5783 11.5441C65.0434 11.9923 65.4204 12.5814 65.6844 13.3114C65.9609 14.0286 66.0866 14.9122 66.0866 15.9368V16.7179H57.2126V15.0659H63.9498C63.9498 14.4896 63.8367 13.9645 63.5979 13.5163C63.3716 13.0681 63.0448 12.7095 62.6175 12.4406C62.2027 12.1844 61.7125 12.0436 61.1469 12.0436C60.531 12.0436 60.003 12.1972 59.5505 12.5046C59.098 12.812 58.7461 13.209 58.5073 13.6828C58.2685 14.1694 58.1428 14.6945 58.1428 15.258V16.5515C58.1428 17.307 58.2685 17.9602 58.545 18.4853C58.8089 19.0231 59.1735 19.4201 59.6511 19.7019C60.1287 19.9836 60.6818 20.1245 61.3103 20.1245C61.725 20.1245 62.1021 20.0605 62.4415 19.9452C62.7809 19.8299 63.07 19.6378 63.3214 19.4073C63.5727 19.164 63.7613 18.8694 63.887 18.5109L65.9483 18.8823C65.7849 19.497 65.4833 20.0348 65.0685 20.4959C64.6411 20.9569 64.1132 21.3155 63.4722 21.5716C62.8437 21.8278 62.1147 21.9558 61.3103 21.9558Z" fill="white"/>
<path d="M66.877 21.7255V10.3661H68.976V12.1718H69.0892C69.2903 11.5571 69.6548 11.0832 70.1701 10.7247C70.6855 10.3661 71.2762 10.1996 71.9298 10.1996C72.0681 10.1996 72.2315 10.1996 72.4075 10.2124C72.5834 10.2252 72.7343 10.238 72.8474 10.2508V12.3639C72.7594 12.3383 72.6086 12.3127 72.3823 12.2742C72.1561 12.2486 71.9424 12.223 71.7162 12.223C71.2008 12.223 70.7483 12.3383 70.3461 12.556C69.9439 12.7737 69.6296 13.0811 69.4034 13.4653C69.1771 13.8494 69.0515 14.2977 69.0515 14.7843V21.7255H66.877Z" fill="white"/>
<path d="M77.8004 21.9561C76.7194 21.9561 75.7893 21.7 75.01 21.2005C74.2307 20.7011 73.6399 20.0095 73.2251 19.1259C72.8104 18.2422 72.5967 17.2305 72.5967 16.0907C72.5967 14.9381 72.8104 13.9136 73.2377 13.03C73.6651 12.1463 74.2684 11.4548 75.0351 10.9553C75.8019 10.4558 76.7194 10.2125 77.7753 10.2125C78.6174 10.2125 79.3841 10.3662 80.0377 10.6864C80.7039 11.0065 81.2318 11.4548 81.6466 12.0182C82.0614 12.5945 82.3002 13.2605 82.3756 14.0289H80.264C80.1509 13.491 79.8869 13.0428 79.4721 12.6458C79.0573 12.2616 78.5043 12.0695 77.813 12.0695C77.2096 12.0695 76.6817 12.236 76.2292 12.5561C75.7767 12.8763 75.4248 13.3373 75.1734 13.9392C74.922 14.5283 74.7963 15.2327 74.7963 16.0395C74.7963 16.8719 74.922 17.5891 75.1608 18.191C75.4122 18.7929 75.7516 19.2539 76.2167 19.5869C76.6691 19.9199 77.2096 20.0864 77.813 20.0864C78.2277 20.0864 78.6048 20.0095 78.9316 19.8558C79.271 19.7022 79.5475 19.4717 79.7864 19.1899C80.0126 18.8954 80.176 18.5496 80.264 18.1398H82.3756C82.3002 18.8697 82.0614 19.5357 81.6718 20.112C81.2821 20.6883 80.7542 21.1493 80.1006 21.4695C79.447 21.7896 78.6802 21.9561 77.8004 21.9561Z" fill="white"/>
<path d="M86.7382 21.9816C86.0343 21.9816 85.3933 21.8535 84.8151 21.5846C84.2495 21.3157 83.797 20.9187 83.4576 20.4064C83.1182 19.8941 82.9548 19.2666 82.9548 18.5238C82.9548 17.8835 83.0805 17.3584 83.3193 16.9358C83.5582 16.526 83.885 16.193 84.2998 15.9497C84.7145 15.7064 85.167 15.5271 85.6824 15.399C86.1852 15.271 86.7131 15.1813 87.241 15.1173C87.9072 15.0405 88.4477 14.9764 88.8625 14.9252C89.2772 14.874 89.5789 14.7843 89.7674 14.6691C89.956 14.5538 90.0565 14.3617 90.0565 14.0928V14.0415C90.0565 13.4012 89.8806 12.889 89.5286 12.5432C89.1767 12.1974 88.6488 12.0053 87.9449 12.0053C87.2159 12.0053 86.6377 12.1718 86.2229 12.492C85.8081 12.8121 85.519 13.1835 85.3556 13.5805L83.3193 13.1067C83.5582 12.4151 83.9101 11.8516 84.3877 11.429C84.8528 11.0064 85.3933 10.6862 86.0092 10.4941C86.6251 10.302 87.2661 10.1996 87.9323 10.1996C88.3722 10.1996 88.8499 10.2508 89.3527 10.3533C89.8554 10.4557 90.3205 10.6478 90.7604 10.9296C91.2004 11.2113 91.5523 11.6083 91.8414 12.1334C92.1179 12.6584 92.2688 13.3244 92.2688 14.1568V21.7127H90.1445V20.1631H90.0565C89.9183 20.4448 89.7046 20.7266 89.4281 21.0083C89.1516 21.29 88.787 21.5206 88.3471 21.6999C87.882 21.8919 87.3541 21.9816 86.7382 21.9816ZM87.2159 20.2015C87.8192 20.2015 88.3345 20.0862 88.7619 19.8429C89.1893 19.5996 89.5161 19.2794 89.7423 18.8952C89.9686 18.4982 90.0817 18.0884 90.0817 17.6274V16.1674C90.0063 16.2443 89.8554 16.3211 89.6292 16.3851C89.4029 16.4492 89.1641 16.5132 88.875 16.5516C88.5985 16.6028 88.322 16.6413 88.058 16.6797C87.7941 16.7181 87.5678 16.7437 87.3918 16.7693C86.9645 16.8206 86.5874 16.9102 86.2354 17.0383C85.8835 17.1663 85.607 17.3456 85.4059 17.589C85.2048 17.8323 85.0916 18.1396 85.0916 18.5366C85.0916 19.0873 85.2927 19.4971 85.6824 19.7789C86.0972 20.0606 86.6 20.2015 87.2159 20.2015Z" fill="white"/>
<path d="M98.7158 10.3664V12.1465H92.6196V10.3664H98.7158ZM94.2536 7.63861H96.4281V18.3961C96.4281 18.8315 96.491 19.1517 96.6167 19.3566C96.7424 19.5743 96.9058 19.7152 97.1069 19.792C97.308 19.8688 97.5217 19.9073 97.7605 19.9073C97.9365 19.9073 98.0873 19.8945 98.213 19.8688C98.3387 19.8432 98.4392 19.8304 98.5147 19.8048L98.9043 21.6362C98.7786 21.6874 98.6026 21.7386 98.3638 21.7898C98.125 21.8411 97.8359 21.8667 97.4965 21.8795C96.9309 21.8923 96.3904 21.7898 95.9002 21.5721C95.41 21.3544 95.0078 21.0214 94.7061 20.5604C94.4045 20.1122 94.2536 19.5359 94.2536 18.8443V7.63861Z" fill="white"/>
<path d="M104.045 21.9562C103.001 21.9562 102.084 21.7129 101.304 21.2263C100.525 20.7396 99.9218 20.0481 99.4819 19.1772C99.0419 18.3064 98.8408 17.269 98.8408 16.1037C98.8408 14.9255 99.0545 13.8881 99.4819 13.0045C99.9092 12.1208 100.513 11.4293 101.304 10.9426C102.084 10.456 103.001 10.2126 104.045 10.2126C105.088 10.2126 106.005 10.456 106.785 10.9426C107.564 11.4293 108.167 12.1208 108.595 13.0045C109.022 13.8881 109.236 14.9255 109.236 16.1037C109.236 17.2819 109.022 18.3064 108.595 19.1772C108.167 20.0481 107.564 20.7396 106.785 21.2263C106.005 21.7129 105.088 21.9562 104.045 21.9562ZM104.057 20.0993C104.736 20.0993 105.301 19.92 105.741 19.5486C106.181 19.1772 106.521 18.7034 106.734 18.0887C106.948 17.4868 107.061 16.808 107.061 16.078C107.061 15.3481 106.948 14.6821 106.734 14.0802C106.521 13.4655 106.194 12.9789 105.741 12.6075C105.301 12.2361 104.736 12.0568 104.057 12.0568C103.378 12.0568 102.813 12.2361 102.36 12.6075C101.908 12.9789 101.581 13.4655 101.367 14.0802C101.154 14.6949 101.04 15.3609 101.04 16.078C101.04 16.808 101.154 17.474 101.367 18.0887C101.581 18.6906 101.92 19.1772 102.36 19.5486C102.8 19.92 103.366 20.0993 104.057 20.0993Z" fill="white"/>
<path d="M110.03 21.7255V10.3661H112.129V12.1718H112.242C112.443 11.5571 112.807 11.0832 113.323 10.7247C113.838 10.3661 114.429 10.1996 115.082 10.1996C115.221 10.1996 115.384 10.1996 115.56 10.2124C115.736 10.2252 115.887 10.238 116 10.2508V12.3639C115.912 12.3383 115.761 12.3127 115.535 12.2742C115.309 12.2486 115.095 12.223 114.869 12.223C114.353 12.223 113.901 12.3383 113.499 12.556C113.096 12.7737 112.782 13.0811 112.556 13.4653C112.33 13.8494 112.204 14.2977 112.204 14.7843V21.7255H110.03Z" fill="white"/>
<path d="M32.6156 27.4146L17.6749 1.05061C17.6257 0.963769 17.5549 0.891643 17.4697 0.841462C17.3845 0.791282 17.2879 0.764813 17.1894 0.76471H15.6363C15.5377 0.764562 15.4407 0.790912 15.3552 0.841105C15.2698 0.891298 15.1988 0.963559 15.1495 1.05061L0.243854 27.1816C0.162168 27.3249 0.119141 27.4876 0.119141 27.6533C0.119141 27.819 0.162168 27.9818 0.243854 28.125L0.835926 29.1714C0.917028 29.314 1.03346 29.4323 1.17356 29.5146C1.31367 29.5969 1.47253 29.6402 1.63424 29.6403H31.3529C31.4515 29.6404 31.5485 29.6141 31.6339 29.5639C31.7194 29.5137 31.7904 29.4414 31.8397 29.3544L32.6156 27.9835C32.6643 27.8969 32.6899 27.7989 32.6899 27.6991C32.6899 27.5992 32.6643 27.5012 32.6156 27.4146ZM26.4044 27.639H4.14142C4.14142 27.639 5.69877 26.8399 6.21648 26.5612L9.17964 24.9687C9.26463 24.924 9.33973 24.862 9.40033 24.7866C9.46093 24.7111 9.50575 24.6239 9.53203 24.5302C9.55831 24.4364 9.5655 24.3382 9.55316 24.2416C9.54081 24.1449 9.50919 24.0519 9.46024 23.9681L9.17964 23.4749C9.08844 23.3159 8.94049 23.1989 8.76666 23.1483C8.59283 23.0977 8.40654 23.1174 8.24664 23.2033L3.37678 25.8279L14.3568 6.44977C14.4183 6.34034 14.5137 6.25473 14.628 6.20628C14.7423 6.15782 14.8692 6.14923 14.9887 6.18186C15.1083 6.21448 15.214 6.28648 15.2892 6.38665C15.3645 6.48682 15.4051 6.60952 15.4048 6.73567V19.0207C15.4048 19.1249 15.3768 19.2271 15.3239 19.3163C15.271 19.4055 15.1951 19.4782 15.1046 19.5267L10.8226 21.8282L11.8159 23.5564L16.1288 21.2392C16.2091 21.1964 16.2984 21.174 16.389 21.174C16.4797 21.174 16.569 21.1964 16.6493 21.2392L26.664 26.5626C26.7741 26.6224 26.8616 26.7179 26.9125 26.834C26.9634 26.9501 26.9748 27.0802 26.9451 27.2037C26.9153 27.3271 26.846 27.437 26.7481 27.5158C26.6501 27.5947 26.5292 27.638 26.4044 27.639ZM27.705 24.8572L17.6693 19.521C17.5785 19.4724 17.5025 19.3994 17.4496 19.31C17.3967 19.2205 17.3688 19.118 17.369 19.0135V6.64275C17.3692 6.51707 17.4101 6.39496 17.4853 6.29531C17.5604 6.19566 17.6658 6.12402 17.7849 6.09147C17.9041 6.05893 18.0304 6.06728 18.1444 6.11526C18.2584 6.16323 18.3538 6.24814 18.4157 6.35685L28.4514 24.0653C28.5132 24.1726 28.5389 24.2975 28.5248 24.421C28.5106 24.5446 28.4572 24.6601 28.3728 24.7499C28.2884 24.8398 28.1776 24.8992 28.0571 24.9191C27.9365 24.939 27.8129 24.9182 27.705 24.8601V24.8572Z" fill="#FBFAF6"/>
<g filter="url(#filter0_d_5083_12782)">
<path d="M14.9218 29.7333H1.51601C1.36593 29.7331 1.21859 29.6923 1.08897 29.6152C0.959355 29.5381 0.852071 29.4275 0.778022 29.2945L0.131233 28.1395C0.0561318 28.0066 0.0166016 27.856 0.0166016 27.7027C0.0166016 27.5495 0.0561318 27.3989 0.131233 27.266L6.83342 15.5443C6.9088 15.4138 7.01625 15.3057 7.14518 15.2305C7.2741 15.1553 7.42004 15.1156 7.5686 15.1154H8.86077C9.00936 15.1155 9.15536 15.1551 9.28431 15.2303C9.41325 15.3055 9.52068 15.4137 9.59595 15.5443L16.2995 27.266C16.3751 27.3987 16.4148 27.5494 16.4148 27.7027C16.4148 27.8561 16.3751 28.0068 16.2995 28.1395L15.6542 29.2945C15.5806 29.4266 15.4742 29.5368 15.3456 29.6138C15.2171 29.6908 15.0709 29.732 14.9218 29.7333V29.7333ZM3.76784 27.6391H12.6714C12.8185 27.6377 12.9626 27.5971 13.0895 27.5212C13.2164 27.4454 13.3215 27.337 13.3945 27.2068C13.4674 27.0767 13.5057 26.9293 13.5053 26.7794C13.505 26.6296 13.4661 26.4824 13.3925 26.3526L8.93934 18.5619C8.8665 18.433 8.76163 18.326 8.63527 18.2516C8.50892 18.1772 8.36555 18.138 8.2196 18.138C8.07365 18.138 7.93028 18.1772 7.80393 18.2516C7.67757 18.326 7.57269 18.433 7.49985 18.5619L3.06914 26.3855C2.99115 26.5105 2.94804 26.6549 2.94444 26.803C2.94083 26.9511 2.97686 27.0974 3.04867 27.2263C3.12048 27.3551 3.22535 27.4616 3.35205 27.5343C3.47874 27.6071 3.62248 27.6433 3.76784 27.6391V27.6391Z" fill="#FBFAF6"/>
</g>
</g>
<defs>
<filter id="filter0_d_5083_12782" x="-122.983" y="-107.885" width="262.398" height="260.618" filterUnits="userSpaceOnUse" color-interpolation-filters="sRGB">
<feFlood flood-opacity="0" result="BackgroundImageFix"/>
<feColorMatrix in="SourceAlpha" type="matrix" values="0 0 0 0 0 0 0 0 0 0 0 0 0 0 0 0 0 0 127 0" result="hardAlpha"/>
<feOffset/>
<feGaussianBlur stdDeviation="61.5"/>
<feColorMatrix type="matrix" values="0 0 0 0 0.968627 0 0 0 0 0.960784 0 0 0 0 0.929412 0 0 0 0.5 0"/>
<feBlend mode="normal" in2="BackgroundImageFix" result="effect1_dropShadow_5083_12782"/>
<feBlend mode="normal" in="SourceGraphic" in2="effect1_dropShadow_5083_12782" result="shape"/>
</filter>
<clipPath id="clip0_5083_12782">
<rect width="122" height="29.5472" fill="white" transform="translate(0 0.22644)"/>
</clipPath>
</defs>
</svg>
